#Comment line ignore any data following # character 
#Hierarchical Translation and Rotation (.htr) file 
[Header]	
#Header keywords are followed by a single value 
FileType HTR		#Single word string
DataType HTRS		#Translation followed by rotation and scale data
FileVersion 1		#integer
NumSegments 25		#integer
NumFrames 5		#integer
DataFrameRate 30		#integer, data frame rate in this file
EulerRotationOrder ZYX
CalibrationUnits mm
RotationUnits Degrees
GlobalAxisofGravity Y
BoneLengthAxis Y
ScaleFactor 1.00
[SegmentNames&Hierarchy]
#CHILD	PARENT
BN_Tick_Root GLOBAL
BN_Torso BN_Tick_Root
BN_L_Leg_Front01 BN_Torso
BN_L_Leg_Rear01 BN_Torso
BN_MetalTop BN_Torso
BN_Neck BN_Torso
BN_R_Leg_Front01 BN_Torso
BN_R_Leg_Rear01 BN_Torso
BN_Sack BN_Torso
BN_L_Leg_Front02 BN_L_Leg_Front01
BN_L_Leg_Front03 BN_L_Leg_Front02
BN_L_Leg_Rear02 BN_L_Leg_Rear01
BN_L_Leg_Rear03 BN_L_Leg_Rear02
BN_Head BN_Neck
BN_Needle BN_Head
BN_R_Leg_Front02 BN_R_Leg_Front01
BN_R_Leg_Front03 BN_R_Leg_Front02
BN_R_Leg_Rear02 BN_R_Leg_Rear01
BN_R_Leg_Rear03 BN_R_Leg_Rear02
BN_SackDef01 BN_Sack
BN_SackDef02 BN_Sack
BN_SackDef03 BN_Sack
BN_SackDef04 BN_Sack
BN_SackDef05 BN_Sack
BN_SackDef06 BN_Sack
[BasePosition]
#SegmentName Tx, Ty, Tz, Rx, Ry, Rz, BoneLength
BN_Tick_Root 0.000000 0.000000 0.000000 -90.000000 0.000000 0.000000 10.000000 
BN_Torso 0.000000 0.000000 0.000000 0.000000 0.000000 0.000000 10.000000 
BN_L_Leg_Front01 0.000000 0.000000 0.000000 0.000000 0.000000 0.000000 10.000000 
BN_L_Leg_Rear01 0.000000 0.000000 0.000000 0.000000 0.000000 0.000000 10.000000 
BN_MetalTop 0.000000 0.000000 0.000000 0.000000 0.000000 0.000000 10.000000 
BN_Neck 0.000000 0.000000 0.000000 0.000000 0.000000 0.000000 10.000000 
BN_R_Leg_Front01 0.000000 0.000000 0.000000 0.000000 0.000000 0.000000 10.000000 
BN_R_Leg_Rear01 0.000000 0.000000 0.000000 0.000000 0.000000 0.000000 10.000000 
BN_Sack 0.000000 0.000000 0.000000 0.000000 0.000000 0.000000 10.000000 
BN_L_Leg_Front02 0.000000 0.000000 0.000000 0.000000 0.000000 0.000000 10.000000 
BN_L_Leg_Front03 0.000000 0.000000 0.000000 0.000000 0.000000 0.000000 10.000000 
BN_L_Leg_Rear02 0.000000 0.000000 0.000000 0.000000 0.000000 0.000000 10.000000 
BN_L_Leg_Rear03 0.000000 0.000000 0.000000 0.000000 0.000000 0.000000 10.000000 
BN_Head 0.000000 0.000000 0.000000 0.000000 0.000000 0.000000 10.000000 
BN_Needle 0.000000 0.000000 0.000000 0.000000 0.000000 0.000000 10.000000 
BN_R_Leg_Front02 0.000000 0.000000 0.000000 0.000000 0.000000 0.000000 10.000000 
BN_R_Leg_Front03 0.000000 0.000000 0.000000 0.000000 0.000000 0.000000 10.000000 
BN_R_Leg_Rear02 0.000000 0.000000 0.000000 0.000000 0.000000 0.000000 10.000000 
BN_R_Leg_Rear03 0.000000 0.000000 0.000000 0.000000 0.000000 0.000000 10.000000 
BN_SackDef01 0.000000 0.000000 0.000000 0.000000 0.000000 0.000000 10.000000 
BN_SackDef02 0.000000 0.000000 0.000000 0.000000 0.000000 0.000000 10.000000 
BN_SackDef03 0.000000 0.000000 0.000000 0.000000 0.000000 0.000000 10.000000 
BN_SackDef04 0.000000 0.000000 0.000000 0.000000 0.000000 0.000000 10.000000 
BN_SackDef05 0.000000 0.000000 0.000000 0.000000 0.000000 0.000000 10.000000 
BN_SackDef06 0.000000 0.000000 0.000000 0.000000 0.000000 0.000000 10.000000 
#Beginning of Data. Separated by tabs
#Fr	Tx	Ty	Tz	Rx	Ry	Rz	SF
[BN_Tick_Root]
10 0.000000 -0.000020 0.000000 0.000000 0.000000 -0.000020 0.000020
11 0.000000 -0.000022 0.000000 0.000000 0.000000 -0.000020 0.000022
12 0.000000 -0.000024 0.000000 0.000000 0.000000 -0.000020 0.000024
13 0.000000 -0.000026 0.000000 0.000000 0.000000 -0.000020 0.000026
14 0.000000 -0.000029 0.000000 0.000000 0.000000 -0.000020 0.000029
[BN_Torso]
10 10.022041 61.916924 324.272430 22.690699 -8.155328 2.854089 330.282837
11 10.022041 60.745296 339.325623 29.070221 -8.166818 2.235128 344.865662
12 10.022041 63.237278 338.028564 27.637033 -6.017438 2.983714 344.038788
13 10.022041 67.865242 335.013824 24.600513 -2.017794 4.636109 341.965485
14 10.022043 70.357224 331.596130 21.845661 0.131349 6.301172 339.126190
[BN_L_Leg_Front01]
10 -68.477791 10.734189 -26.804373 11.245956 57.254669 -152.025192 74.316254
11 -68.477791 10.734189 -26.804373 22.627413 53.807007 -141.062012 74.316254
12 -68.477791 10.734189 -26.804373 32.408680 58.496315 -137.833054 74.316254
13 -68.477791 10.734189 -26.804373 53.508041 66.811516 -131.229477 74.316254
14 -68.477791 10.734189 -26.804373 68.990349 71.513443 -125.692406 74.316254
[BN_L_Leg_Rear01]
10 -72.133743 -73.994843 -18.268616 73.406479 33.779190 -126.021538 104.939293
11 -72.133743 -73.994843 -18.268616 77.045731 28.839132 -123.082428 104.939293
12 -72.133743 -73.994843 -18.268616 78.246986 31.442442 -121.791977 104.939293
13 -72.133743 -73.994843 -18.268616 80.767075 36.691631 -119.683464 104.939293
14 -72.133743 -73.994843 -18.268616 82.105667 40.754826 -119.674438 104.939293
[BN_MetalTop]
10 0.000008 13.737477 26.403606 92.190498 -11.535612 -97.174950 29.763546
11 0.000008 13.737477 26.403606 92.190498 -11.535612 -97.174950 29.763546
12 0.000008 13.737477 26.403606 91.292267 -16.185728 -97.232765 29.763546
13 0.000008 13.737477 26.403606 90.841766 -24.378077 -97.372475 29.763546
14 0.000008 13.737477 26.403606 94.277534 -33.884964 -97.502426 29.763546
[BN_Neck]
10 0.000014 95.233284 10.002091 -89.999672 -65.297531 89.999657 95.757088
11 0.000014 95.233284 10.002091 -89.999672 -65.297531 89.999657 95.757088
12 0.000014 95.233284 10.002091 -89.999672 -65.297531 89.999657 95.757088
13 0.000014 95.233284 10.002091 -89.999672 -65.297531 89.999657 95.757088
14 0.000014 95.233284 10.002091 -89.999672 -65.297531 89.999657 95.757088
[BN_R_Leg_Front01]
10 68.477768 10.734107 -26.804314 -46.740772 67.349319 -69.302177 74.316193
11 68.477768 10.734107 -26.804314 -54.225021 60.944427 -75.932922 74.316193
12 68.477768 10.734107 -26.804314 -47.958500 61.408100 -70.809525 74.316193
13 68.477768 10.734107 -26.804314 -34.989674 61.924988 -60.620121 74.316193
14 68.477768 10.734107 -26.804314 -19.895498 62.181229 -47.993198 74.316193
[BN_R_Leg_Rear01]
10 72.133751 -73.994873 -18.268644 -90.478989 53.442200 -83.144875 104.939331
11 72.133751 -73.994873 -18.268644 -91.755318 47.403362 -84.163971 104.939331
12 72.133751 -73.994873 -18.268644 -87.992958 47.890961 -80.872253 104.939331
13 72.133751 -73.994873 -18.268644 -80.412704 48.785797 -74.817413 104.939331
14 72.133751 -73.994873 -18.268644 -75.082352 50.010639 -71.684181 104.939331
[BN_Sack]
10 -0.000000 -78.024918 33.657791 91.364143 -5.490751 -97.067772 84.974907
11 -0.000000 -78.024918 33.657791 91.361038 -5.287623 -97.059677 84.974907
12 -0.000000 -78.024918 33.657791 91.289162 -9.884329 -97.120285 84.974907
13 -0.000000 -78.024918 33.657791 91.433708 -18.761152 -97.397583 84.974907
14 -0.000000 -78.024918 33.657791 94.127319 -30.720671 -100.885567 84.974907
[BN_L_Leg_Front02]
10 142.805023 -0.000015 -0.000104 0.194391 0.214814 -85.263458 142.805023
11 142.805023 -0.000015 -0.000104 0.200712 0.155704 -79.319069 142.805023
12 142.805023 -0.000015 -0.000104 0.183501 0.287893 -92.140373 142.805023
13 142.805023 -0.000015 -0.000104 0.145393 0.427400 -105.821503 142.805023
14 142.805023 -0.000015 -0.000104 0.166051 0.374463 -100.409637 142.805023
[BN_L_Leg_Front03]
10 124.143021 -0.000045 0.000007 0.350772 -0.447934 91.230896 124.143021
11 124.143021 -0.000045 0.000007 0.353349 -0.445859 83.518814 124.143021
12 124.143021 -0.000045 0.000007 0.354691 -0.440603 99.661644 124.143021
13 124.143021 -0.000045 0.000007 0.352806 -0.410317 114.733231 124.143021
14 124.143021 -0.000045 0.000007 0.353134 -0.424491 109.049660 124.143021
[BN_L_Leg_Rear02]
10 139.939041 0.000075 -0.000022 0.143344 -0.159928 70.541618 139.939041
11 139.939041 0.000075 -0.000022 0.156190 -0.161148 67.195480 139.939041
12 139.939041 0.000075 -0.000022 0.156930 -0.160427 66.667847 139.939041
13 139.939041 0.000075 -0.000022 0.161010 -0.154891 65.664383 139.939041
14 139.939041 0.000075 -0.000022 0.169633 -0.159923 65.440857 139.939041
[BN_L_Leg_Rear03]
10 142.839615 0.000179 -0.000060 0.000169 0.002341 -81.762833 142.839615
11 142.839615 0.000179 -0.000060 0.000269 0.002332 -76.848396 142.839615
12 142.839615 0.000179 -0.000060 0.000285 0.002330 -76.073990 142.839615
13 142.839615 0.000179 -0.000060 0.000315 0.002326 -74.568367 142.839615
14 142.839615 0.000179 -0.000060 0.000322 0.002325 -74.239288 142.839615
[BN_Head]
10 57.062447 -0.000030 0.000000 6.129377 20.132170 56.804169 57.062447
11 57.062447 -0.000030 0.000000 7.362103 19.374249 65.391350 57.062447
12 57.062447 -0.000030 0.000000 5.678681 18.820456 65.230896 57.062447
13 57.062447 -0.000030 0.000000 1.485299 18.364382 62.437664 57.062447
14 57.062447 -0.000030 0.000000 -1.356269 18.858782 59.547043 57.062447
[BN_Needle]
10 33.915226 69.677490 -0.000045 0.000003 0.000030 87.896805 77.493187
11 33.915226 69.677498 -0.000044 0.000003 0.000030 87.896805 77.493202
12 33.915222 69.677498 -0.000044 0.000003 0.000030 87.896805 77.493202
13 33.915218 69.677498 -0.000043 0.000003 0.000030 87.896805 77.493195
14 33.915215 69.677498 -0.000043 0.000003 0.000030 87.896805 77.493195
[BN_R_Leg_Front02]
10 142.804947 -0.000060 0.000060 -0.196349 0.215222 84.858574 142.804947
11 142.804947 -0.000060 0.000060 -0.206539 0.151011 78.248245 142.804947
12 142.804947 -0.000060 0.000060 -0.201879 0.172305 80.245148 142.804947
13 142.804947 -0.000060 0.000060 -0.197427 0.206917 84.090363 142.804947
14 142.804947 -0.000060 0.000060 -0.180502 0.303111 93.623566 142.804947
[BN_R_Leg_Front03]
10 124.143005 -0.000060 -0.000156 -0.350422 -0.448684 -90.715393 124.143005
11 124.143005 -0.000060 -0.000156 -0.353130 -0.442969 -82.090149 124.143005
12 124.143005 -0.000060 -0.000156 -0.353090 -0.447067 -84.746857 124.143005
13 124.143005 -0.000060 -0.000156 -0.354228 -0.447988 -89.741539 124.143005
14 124.143005 -0.000060 -0.000156 -0.353017 -0.441798 -101.408821 124.143005
[BN_R_Leg_Rear02]
10 139.939011 -0.000149 0.000015 -0.098895 -0.214027 -89.476669 139.939011
11 139.939011 -0.000149 0.000015 -0.111961 -0.217990 -86.323441 139.939011
12 139.939011 -0.000149 0.000015 -0.122160 -0.235576 -86.737732 139.939011
13 139.939011 -0.000149 0.000015 -0.113483 -0.229526 -87.481606 139.939011
14 139.939011 -0.000149 0.000015 -0.108794 -0.226639 -88.044273 139.939011
[BN_R_Leg_Rear03]
10 142.839417 0.000075 0.000119 0.002321 -0.000350 107.158081 142.839417
11 142.839417 0.000075 0.000119 0.002332 -0.000271 103.242004 142.839417
12 142.839417 0.000075 0.000119 0.002330 -0.000281 103.770996 142.839417
13 142.839417 0.000075 0.000119 0.002328 -0.000300 104.704643 142.839417
14 142.839417 0.000075 0.000119 0.002326 -0.000314 105.396370 142.839417
[BN_SackDef01]
10 249.782349 -3.760656 42.949486 -128.408218 -44.374973 -11.740845 253.475876
11 249.782349 -3.760658 42.949486 -128.408218 -44.374973 -11.740845 253.475876
12 249.782349 -3.760659 42.949486 -128.408218 -44.374973 -11.740845 253.475876
13 249.782349 -3.760661 42.949486 -128.408218 -44.374973 -11.740845 253.475876
14 249.782349 -3.760662 42.949486 -128.408218 -44.374973 -11.740845 253.475876
[BN_SackDef02]
10 138.789810 -62.131638 45.674431 32.077126 -27.375721 -88.781525 158.773758
11 138.789810 -62.131638 45.674431 32.077126 -27.375721 -88.781525 158.773758
12 138.789810 -62.131638 45.674431 32.077126 -27.375721 -88.781525 158.773758
13 138.789810 -62.131638 45.674431 32.077126 -27.375721 -88.781525 158.773758
14 138.789810 -62.131638 45.674431 32.077126 -27.375721 -88.781525 158.773758
[BN_SackDef03]
10 249.782288 -3.760640 -42.949627 18.144459 44.375008 -11.740894 253.475845
11 249.782288 -3.760639 -42.949627 18.144459 44.375008 -11.740894 253.475845
12 249.782288 -3.760639 -42.949627 18.144459 44.375008 -11.740894 253.475845
13 249.782288 -3.760638 -42.949627 18.144459 44.375008 -11.740894 253.475845
14 249.782303 -3.760638 -42.949627 18.144459 44.375008 -11.740894 253.475861
[BN_SackDef04]
10 138.789810 -62.131554 -45.674412 146.059982 27.375723 -88.781555 158.773727
11 138.789810 -62.131554 -45.674412 146.059982 27.375723 -88.781555 158.773727
12 138.789810 -62.131554 -45.674412 146.059982 27.375723 -88.781555 158.773727
13 138.789810 -62.131554 -45.674412 146.059982 27.375723 -88.781555 158.773727
14 138.789810 -62.131550 -45.674412 146.059982 27.375723 -88.781555 158.773727
[BN_SackDef05]
10 118.790169 46.167183 -63.831203 0.155741 51.314110 90.605110 142.537491
11 118.790169 46.167183 -63.831203 0.155741 51.314110 90.605110 142.537491
12 118.790169 46.167183 -63.831203 0.155741 51.314110 90.605110 142.537491
13 118.790169 46.167183 -63.831203 0.155741 51.314110 90.605110 142.537491
14 118.790169 46.167183 -63.831203 0.155741 51.314110 90.605110 142.537491
[BN_SackDef06]
10 118.790230 46.167267 63.831188 152.058487 -51.314072 90.605019 142.537567
11 118.790230 46.167267 63.831188 152.058487 -51.314072 90.605019 142.537567
12 118.790230 46.167267 63.831188 152.058487 -51.314072 90.605019 142.537567
13 118.790230 46.167267 63.831188 152.058487 -51.314072 90.605019 142.537567
14 118.790230 46.167263 63.831188 152.058487 -51.314072 90.605019 142.537567
